%
M48
M72
T01C0.0138
T02C0.0200
T03C0.0315
T04C0.0320
T05C0.0354
T06C0.0394
T07C0.0400
T08C0.0472
T09C0.0512
T10C0.0630
%
T01
X5294Y6245
X5786Y8213
X9034Y6245
X10019Y4670
X12676Y3883
X14152Y5851
X14940Y4965
X16712Y6639
X15924Y10576
X20452Y20156
X23999Y24355
X24586Y16613
X27714Y13331
X28521Y19631
X27341Y36954
X23798Y43646
X25999Y44828
X18999Y35694
X17999Y34985
X18499Y34394
X17499Y34985
X16499Y33804
X15999Y34394
X14527Y36619
X13680Y36954
X15530Y38528
X12578Y33410
X9231Y36619
X8838Y36954
X8050Y37741
X6082Y34591
X5097Y33804
X6082Y29867
X4704Y25143
X3916Y23174
X7401Y25143
X9428Y21599
X11999Y21599
X11999Y27702
X10999Y27702
X9999Y27702
X5491Y38528
X7558Y43646
X8149Y44828
X19369Y14251
X19861Y10580
T02
X3030Y38302
X3030Y35448
T03
X4105Y35920
X4105Y37830
T04
X3810Y41087
X4810Y41087
T05
X7853Y46402
X6672Y46402
T06
X7999Y39800
X7999Y40800
X8999Y40800
X8999Y39800
X9999Y39800
X9999Y40800
X10999Y40800
X10999Y39800
X11999Y39800
X11999Y40800
X12999Y40800
X12999Y39800
X13999Y39800
X13999Y40800
X14999Y40800
X14999Y39800
X15999Y39800
X15999Y40800
X16999Y40800
X16999Y39800
X17999Y39800
X17999Y40800
X18999Y40800
X18999Y39800
X19999Y39800
X19999Y40800
X20999Y40800
X20999Y39800
X21999Y39800
X21999Y40800
X22999Y40800
X22999Y39800
X23999Y39800
X23999Y40800
X24999Y40800
X24999Y39800
X25999Y39800
X25999Y40800
X26999Y40800
X26999Y39800
T07
X21928Y3867
X21928Y4867
T08
X16483Y13020
X17664Y18926
X18326Y5457
X16357Y3489
X16357Y2505
X20294Y2505
X20294Y3489
X26326Y11446
X23176Y21288
T09
X20334Y5457
X19310Y5457
X17341Y5457
X16318Y5457
X18326Y3489
T10
X3129Y29473
X3129Y33410
X30097Y34985
X30097Y38922
M30
